<?xml version="1.0" encoding="UTF-8"?>
<svg xmlns="http://www.w3.org/2000/svg" xmlns:xlink="http://www.w3.org/1999/xlink" width="91.79pt" height="81.03pt" viewBox="0 0 91.79 81.03" version="1.1">
<defs>
<clipPath id="clip1">
  <path d="M 0 0 L 83 0 L 83 81.03125 L 0 81.03125 Z M 0 0 "/>
</clipPath>
<clipPath id="clip2">
  <path d="M 77 13 L 91.789063 13 L 91.789063 29 L 77 29 Z M 77 13 "/>
</clipPath>
<clipPath id="clip3">
  <path d="M 82 12 L 91.789063 12 L 91.789063 16 L 82 16 Z M 82 12 "/>
</clipPath>
<clipPath id="clip4">
  <path d="M 78 9 L 91.789063 9 L 91.789063 20 L 78 20 Z M 78 9 "/>
</clipPath>
</defs>
<g id="surface1">
<path style=" stroke:none;fill-rule:nonzero;fill:rgb(13.699341%,12.199402%,12.5%);fill-opacity:1;" d="M 46.023438 9.625 C 46.023438 9.625 38.773438 -0.125 23.359375 0.125 C 7.941406 0.378906 -0.726563 13.058594 0.191406 22.125 C 0.191406 32.605469 4.273438 41.480469 4.523438 46.792969 C 4.777344 52.109375 4.273438 54.238281 3.523438 56.292969 C 2.777344 58.347656 2.691406 62.792969 2.691406 62.792969 C 2.691406 62.792969 13.710938 74.523438 17.359375 75.792969 C 21.707031 78.046875 25.523438 81.578125 31.691406 80.792969 C 37.859375 80.011719 39.605469 78.742188 42.023438 76.625 C 44.441406 74.511719 42.359375 71.960938 42.359375 71.960938 C 42.359375 71.960938 41.054688 68.742188 44.664063 66.625 C 48.277344 64.511719 50.691406 53.125 50.691406 53.125 C 50.691406 53.125 54.375 45.746094 53.859375 41.964844 C 53.34375 38.183594 52.859375 34.625 52.859375 34.625 C 52.859375 34.625 53.605469 31.234375 54.523438 28.792969 C 55.441406 26.351563 54.191406 23.375 53.691406 21.125 C 53.691406 20.019531 50.773438 17.792969 54.523438 17.792969 L 69.859375 17.792969 L 72.691406 17.460938 L 79.359375 13.792969 C 79.359375 13.792969 73.089844 10.578125 72.523438 10.460938 C 71.960938 10.339844 69.359375 9.792969 69.359375 9.792969 "/>
<g clip-path="url(#clip1)" clip-rule="nonzero">
<path style="fill:none;stroke-width:2.5;stroke-linecap:butt;stroke-linejoin:miter;stroke:rgb(0.799561%,0.799561%,0.799561%);stroke-opacity:1;stroke-miterlimit:10;" d="M 460.234375 714.05 C 460.234375 714.05 387.734375 811.55 233.59375 809.05 C 79.414063 806.510937 -7.265625 679.714062 1.914063 589.05 C 1.914063 484.245312 42.734375 395.495312 45.234375 342.370312 C 47.773438 289.20625 42.734375 267.917187 35.234375 247.370312 C 27.773438 226.823437 26.914063 182.370312 26.914063 182.370312 C 26.914063 182.370312 137.109375 65.065625 173.59375 52.370312 C 217.070313 29.83125 255.234375 -5.48125 316.914063 2.370312 C 378.59375 10.182812 396.054688 22.878125 420.234375 44.05 C 444.414063 65.182812 423.59375 90.690625 423.59375 90.690625 C 423.59375 90.690625 410.546875 122.878125 446.640625 144.05 C 482.773438 165.182812 506.914063 279.05 506.914063 279.05 C 506.914063 279.05 543.75 352.839062 538.59375 390.651562 C 533.4375 428.464062 528.59375 464.05 528.59375 464.05 C 528.59375 464.05 536.054688 497.95625 545.234375 522.370312 C 554.414063 546.784375 541.914063 576.55 536.914063 599.05 C 536.914063 610.104687 507.734375 632.370312 545.234375 632.370312 L 698.59375 632.370312 L 726.914063 635.690625 L 793.59375 672.370312 C 793.59375 672.370312 730.898438 704.51875 725.234375 705.690625 C 719.609375 706.901562 693.59375 712.370312 693.59375 712.370312 Z M 460.234375 714.05 " transform="matrix(0.1,0,0,-0.1,0,81.03)"/>
</g>
<path style=" stroke:none;fill-rule:nonzero;fill:rgb(100%,100%,100%);fill-opacity:1;" d="M 30.691406 15.953125 C 30.886719 15.761719 32.359375 14.539063 32.359375 14.539063 C 32.359375 14.539063 33.816406 13.914063 32.023438 13.039063 C 30.234375 12.164063 28.023438 10.496094 28.023438 10.496094 C 28.023438 10.496094 27.191406 9.164063 27.023438 7.996094 C 26.859375 6.828125 26.484375 6.539063 26.484375 6.539063 C 26.484375 6.539063 25.839844 5.792969 23.316406 6.746094 C 21.941406 7.246094 21.023438 7.078125 21.023438 7.078125 C 21.023438 7.078125 20.734375 6.496094 20.648438 4.703125 C 20.566406 2.914063 19.234375 5.371094 18.898438 5.664063 C 18.566406 5.953125 17.984375 7.703125 17.273438 6.996094 C 16.566406 6.289063 15.398438 5.953125 15.441406 5.996094 C 15.484375 6.039063 14.367188 6.121094 14.367188 8.261719 C 14.367188 10.402344 12.320313 9.636719 11.492188 9.730469 C 10.664063 9.824219 9.492188 9.527344 9.304688 9.839844 C 9.117188 10.152344 8.726563 9.964844 9.929688 12.464844 C 11.132813 14.964844 8.257813 14.542969 7.460938 15.042969 C 6.667969 15.542969 5.117188 16.371094 9.210938 17.058594 C 10.757813 17.230469 11.601563 17.292969 11.554688 18.777344 C 11.507813 20.261719 11.445313 21.121094 13.132813 20.886719 C 13.195313 20.667969 13.726563 23.292969 13.914063 23.996094 C 14.101563 24.699219 14.679688 27.105469 15.695313 25.777344 C 16.714844 24.449219 17.601563 23.714844 17.945313 24.074219 C 17.945313 24.074219 20.648438 26.667969 21.054688 26.699219 C 21.464844 26.730469 22.339844 26.417969 23.179688 24.886719 C 24.023438 23.355469 24.117188 23.417969 26.148438 23.574219 C 26.148438 23.574219 26.898438 23.730469 27.398438 23.792969 C 27.898438 23.855469 28.214844 23.417969 28.242188 22.605469 C 28.273438 21.792969 27.148438 20.417969 29.554688 20.261719 C 31.964844 20.105469 33.523438 20.011719 31.179688 18.230469 C 28.839844 16.449219 30.5 16.148438 30.691406 15.953125 "/>
<path style="fill:none;stroke-width:2.5;stroke-linecap:butt;stroke-linejoin:miter;stroke:rgb(100%,100%,100%);stroke-opacity:1;stroke-miterlimit:10;" d="M 306.914063 650.76875 C 308.867188 652.682812 323.59375 664.909375 323.59375 664.909375 C 323.59375 664.909375 338.164063 671.159375 320.234375 679.909375 C 302.34375 688.659375 280.234375 705.339062 280.234375 705.339062 C 280.234375 705.339062 271.914063 718.659375 270.234375 730.339062 C 268.59375 742.01875 264.84375 744.909375 264.84375 744.909375 C 264.84375 744.909375 258.398438 752.370312 233.164063 742.839062 C 219.414063 737.839062 210.234375 739.51875 210.234375 739.51875 C 210.234375 739.51875 207.34375 745.339062 206.484375 763.26875 C 205.664063 781.159375 192.34375 756.589062 188.984375 753.659375 C 185.664063 750.76875 179.84375 733.26875 172.734375 740.339062 C 165.664063 747.409375 153.984375 750.76875 154.414063 750.339062 C 154.84375 749.909375 143.671875 749.089062 143.671875 727.682812 C 143.671875 706.276562 123.203125 713.932812 114.921875 712.995312 C 106.640625 712.057812 94.921875 715.026562 93.046875 711.901562 C 91.171875 708.776562 87.265625 710.651562 99.296875 685.651562 C 111.328125 660.651562 82.578125 664.870312 74.609375 659.870312 C 66.679688 654.870312 51.171875 646.589062 92.109375 639.714062 C 107.578125 637.995312 116.015625 637.370312 115.546875 622.526562 C 115.078125 607.682812 114.453125 599.089062 131.328125 601.432812 C 131.953125 603.620312 137.265625 577.370312 139.140625 570.339062 C 141.015625 563.307812 146.796875 539.245312 156.953125 552.526562 C 167.148438 565.807812 176.015625 573.151562 179.453125 569.557812 C 179.453125 569.557812 206.484375 543.620312 210.546875 543.307812 C 214.648438 542.995312 223.398438 546.120312 231.796875 561.432812 C 240.234375 576.745312 241.171875 576.120312 261.484375 574.557812 C 261.484375 574.557812 268.984375 572.995312 273.984375 572.370312 C 278.984375 571.745312 282.148438 576.120312 282.421875 584.245312 C 282.734375 592.370312 271.484375 606.120312 295.546875 607.682812 C 319.648438 609.245312 335.234375 610.182812 311.796875 627.995312 C 288.398438 645.807812 305 648.815625 306.914063 650.76875 Z M 306.914063 650.76875 " transform="matrix(0.1,0,0,-0.1,0,81.03)"/>
<path style=" stroke:none;fill-rule:nonzero;fill:rgb(100%,100%,100%);fill-opacity:1;" d="M 35.039063 27.042969 C 35.039063 27.042969 36.929688 26.996094 37.601563 27.246094 C 38.273438 27.496094 39.742188 28.417969 40.195313 28.902344 C 40.648438 29.386719 41.210938 30.089844 41.304688 30.621094 C 41.398438 31.152344 41.429688 32.558594 41.085938 32.964844 C 40.742188 33.371094 38.648438 35.136719 38.273438 35.308594 C 37.898438 35.480469 37.023438 35.761719 36.648438 35.808594 C 36.273438 35.855469 35.148438 35.917969 34.445313 35.902344 C 33.742188 35.886719 31.210938 35.402344 30.304688 34.667969 C 29.398438 33.933594 28.335938 32.714844 28.273438 32.089844 C 28.210938 31.464844 27.898438 30.792969 29.054688 29.371094 C 30.210938 27.949219 31.386719 27.683594 32.261719 27.402344 C 33.136719 27.121094 35.039063 27.042969 35.039063 27.042969 "/>
<path style="fill:none;stroke-width:2.5;stroke-linecap:butt;stroke-linejoin:miter;stroke:rgb(100%,100%,100%);stroke-opacity:1;stroke-miterlimit:10;" d="M 350.390625 539.870312 C 350.390625 539.870312 369.296875 540.339062 376.015625 537.839062 C 382.734375 535.339062 397.421875 526.120312 401.953125 521.276562 C 406.484375 516.432812 412.109375 509.401562 413.046875 504.089062 C 413.984375 498.776562 414.296875 484.714062 410.859375 480.651562 C 407.421875 476.589062 386.484375 458.932812 382.734375 457.214062 C 378.984375 455.495312 370.234375 452.682812 366.484375 452.214062 C 362.734375 451.745312 351.484375 451.120312 344.453125 451.276562 C 337.421875 451.432812 312.109375 456.276562 303.046875 463.620312 C 293.984375 470.964062 283.359375 483.151562 282.734375 489.401562 C 282.109375 495.651562 278.984375 502.370312 290.546875 516.589062 C 302.109375 530.807812 313.867188 533.464062 322.617188 536.276562 C 331.367188 539.089062 350.390625 539.870312 350.390625 539.870312 Z M 350.390625 539.870312 " transform="matrix(0.1,0,0,-0.1,0,81.03)"/>
<path style=" stroke:none;fill-rule:nonzero;fill:rgb(100%,100%,100%);fill-opacity:1;" d="M 48.066406 33.6875 C 48.273438 36.605469 51.378906 37.0625 51.796875 37.0625 C 52.214844 37.0625 52.671875 37.167969 52.316406 34.5625 C 52.253906 33.1875 53.023438 30.898438 53.339844 30.398438 C 53.648438 29.898438 53.753906 29.292969 52.878906 29.292969 C 52.003906 29.292969 47.859375 30.773438 48.066406 33.6875 "/>
<path style="fill:none;stroke-width:2.5;stroke-linecap:butt;stroke-linejoin:miter;stroke:rgb(100%,100%,100%);stroke-opacity:1;stroke-miterlimit:10;" d="M 480.664063 473.425 C 482.734375 444.245312 513.789063 439.675 517.96875 439.675 C 522.148438 439.675 526.71875 438.620312 523.164063 464.675 C 522.539063 478.425 530.234375 501.315625 533.398438 506.315625 C 536.484375 511.315625 537.539063 517.370312 528.789063 517.370312 C 520.039063 517.370312 478.59375 502.565625 480.664063 473.425 Z M 480.664063 473.425 " transform="matrix(0.1,0,0,-0.1,0,81.03)"/>
<path style="fill:none;stroke-width:2.5;stroke-linecap:butt;stroke-linejoin:miter;stroke:rgb(100%,100%,100%);stroke-opacity:1;stroke-miterlimit:10;" d="M 528.789063 517.370312 C 528.789063 517.370312 519.0625 515.76875 518.046875 515.378125 C 517.070313 515.026562 478.59375 502.565625 480.664063 473.425 " transform="matrix(0.1,0,0,-0.1,0,81.03)"/>
<path style=" stroke:none;fill-rule:nonzero;fill:rgb(100%,100%,100%);fill-opacity:1;" d="M 43.570313 50.527344 L 47.898438 50.527344 C 47.898438 50.527344 49.726563 50.699219 49.695313 53.105469 C 49.664063 55.511719 48.867188 58.886719 43.929688 58.105469 C 38.992188 57.324219 39.726563 57.136719 37.339844 55.589844 C 34.945313 54.042969 35.089844 52.824219 39.804688 50.933594 C 41.289063 50.464844 43.570313 50.527344 43.570313 50.527344 "/>
<path style="fill:none;stroke-width:2.5;stroke-linecap:butt;stroke-linejoin:miter;stroke:rgb(100%,100%,100%);stroke-opacity:1;stroke-miterlimit:10;" d="M 435.703125 305.026562 L 478.984375 305.026562 C 478.984375 305.026562 497.265625 303.307812 496.953125 279.245312 C 496.640625 255.182812 488.671875 221.432812 439.296875 229.245312 C 389.921875 237.057812 397.265625 238.932812 373.398438 254.401562 C 349.453125 269.870312 350.898438 282.057812 398.046875 300.964062 C 412.890625 305.651562 435.703125 305.026562 435.703125 305.026562 Z M 435.703125 305.026562 " transform="matrix(0.1,0,0,-0.1,0,81.03)"/>
<path style=" stroke:none;fill-rule:nonzero;fill:rgb(13.699341%,12.199402%,12.5%);fill-opacity:1;" d="M 79.960938 20.527344 L 81.148438 22.699219 L 81.414063 23.214844 L 81.507813 23.636719 L 81.242188 24.167969 L 80.734375 24.699219 L 80.085938 24.996094 L 79.492188 24.996094 L 78.570313 23.683594 L 77.523438 21.902344 C 77.523438 21.902344 77.460938 21.214844 77.742188 20.824219 C 78.027344 20.433594 78.554688 20.199219 78.757813 20.105469 C 78.960938 20.011719 79.195313 19.902344 79.359375 19.824219 C 79.527344 19.746094 79.960938 20.527344 79.960938 20.527344 "/>
<path style="fill:none;stroke-width:2.5;stroke-linecap:butt;stroke-linejoin:miter;stroke:rgb(0.799561%,0.799561%,0.799561%);stroke-opacity:1;stroke-miterlimit:10;" d="M 799.609375 605.026562 L 811.484375 583.307812 L 814.140625 578.151562 L 815.078125 573.932812 L 812.421875 568.620312 L 807.34375 563.307812 L 800.859375 560.339062 L 794.921875 560.339062 L 785.703125 573.464062 L 775.234375 591.276562 C 775.234375 591.276562 774.609375 598.151562 777.421875 602.057812 C 780.273438 605.964062 785.546875 608.307812 787.578125 609.245312 C 789.609375 610.182812 791.953125 611.276562 793.59375 612.057812 C 795.273438 612.839062 799.609375 605.026562 799.609375 605.026562 Z M 799.609375 605.026562 " transform="matrix(0.1,0,0,-0.1,0,81.03)"/>
<path style=" stroke:none;fill-rule:nonzero;fill:rgb(13.699341%,12.199402%,12.5%);fill-opacity:1;" d="M 82.476563 17.105469 L 87.585938 22.214844 C 87.585938 22.214844 88.257813 22.761719 87.164063 23.902344 C 86.074219 25.042969 86.460938 25.058594 83.554688 22.277344 C 80.648438 19.496094 80.074219 19.246094 81.507813 17.761719 C 82.324219 16.917969 82.476563 17.105469 82.476563 17.105469 "/>
<g clip-path="url(#clip2)" clip-rule="nonzero">
<path style="fill:none;stroke-width:2.5;stroke-linecap:butt;stroke-linejoin:miter;stroke:rgb(0.799561%,0.799561%,0.799561%);stroke-opacity:1;stroke-miterlimit:10;" d="M 824.765625 639.245312 L 875.859375 588.151562 C 875.859375 588.151562 882.578125 582.682812 871.640625 571.276562 C 860.742188 559.870312 864.609375 559.714062 835.546875 587.526562 C 806.484375 615.339062 800.742188 617.839062 815.078125 632.682812 C 823.242188 641.120312 824.765625 639.245312 824.765625 639.245312 Z M 824.765625 639.245312 " transform="matrix(0.1,0,0,-0.1,0,81.03)"/>
</g>
<g clip-path="url(#clip3)" clip-rule="nonzero">
<path style=" stroke:none;fill-rule:nonzero;fill:rgb(13.699341%,12.199402%,12.5%);fill-opacity:1;" d="M 83.742188 12.621094 L 90.726563 12.839844 C 90.726563 12.839844 91.742188 12.636719 91.664063 14.261719 C 91.585938 15.886719 92.179688 15.824219 84.835938 15.714844 C 82.886719 15.699219 82.367188 15.730469 82.445313 13.621094 C 82.460938 13.011719 82.289063 12.574219 82.976563 12.621094 "/>
</g>
<g clip-path="url(#clip4)" clip-rule="nonzero">
<path style="fill:none;stroke-width:2.5;stroke-linecap:butt;stroke-linejoin:miter;stroke:rgb(0.799561%,0.799561%,0.799561%);stroke-opacity:1;stroke-miterlimit:10;" d="M 837.421875 684.089062 L 907.265625 681.901562 C 907.265625 681.901562 917.421875 683.932812 916.640625 667.682812 C 915.859375 651.432812 921.796875 652.057812 848.359375 653.151562 C 828.867188 653.307812 823.671875 652.995312 824.453125 674.089062 C 824.609375 680.182812 822.890625 684.557812 829.765625 684.089062 Z M 837.421875 684.089062 " transform="matrix(0.1,0,0,-0.1,0,81.03)"/>
</g>
<path style=" stroke:none;fill-rule:nonzero;fill:rgb(13.699341%,12.199402%,12.5%);fill-opacity:1;" d="M 84.273438 4.828125 L 80.589844 8.410156 C 80.589844 8.410156 79.421875 9.328125 80.839844 10.476563 C 82.253906 11.621094 81.859375 11.765625 85.152344 8.328125 C 87.546875 5.785156 87.066406 5.785156 85.753906 4.640625 C 84.878906 3.890625 84.273438 4.828125 84.273438 4.828125 "/>
<path style="fill:none;stroke-width:2.5;stroke-linecap:butt;stroke-linejoin:miter;stroke:rgb(0.799561%,0.799561%,0.799561%);stroke-opacity:1;stroke-miterlimit:10;" d="M 842.734375 762.01875 L 805.898438 726.198437 C 805.898438 726.198437 794.21875 717.01875 808.398438 705.534375 C 822.539063 694.089062 818.59375 692.64375 851.523438 727.01875 C 875.46875 752.448437 870.664063 752.448437 857.539063 763.89375 C 848.789063 771.39375 842.734375 762.01875 842.734375 762.01875 Z M 842.734375 762.01875 " transform="matrix(0.1,0,0,-0.1,0,81.03)"/>
<path style=" stroke:none;fill-rule:nonzero;fill:rgb(13.699341%,12.199402%,12.5%);fill-opacity:1;" d="M 76.878906 7.558594 L 78.109375 8.121094 C 78.109375 8.121094 78.964844 9.121094 79.652344 6.414063 C 80.796875 4.226563 80.234375 4.140625 79.277344 3.621094 C 78.316406 3.101563 78.066406 4.164063 77.464844 5.058594 C 76.859375 5.953125 75.902344 7.015625 76.753906 7.453125 C 77.609375 7.890625 76.878906 7.558594 76.878906 7.558594 "/>
<path style="fill:none;stroke-width:2.5;stroke-linecap:butt;stroke-linejoin:miter;stroke:rgb(0.799561%,0.799561%,0.799561%);stroke-opacity:1;stroke-miterlimit:10;" d="M 768.789063 734.714062 L 781.09375 729.089062 C 781.09375 729.089062 789.648438 719.089062 796.523438 746.159375 C 807.96875 768.034375 802.34375 768.89375 792.773438 774.089062 C 783.164063 779.284375 780.664063 768.659375 774.648438 759.714062 C 768.59375 750.76875 759.023438 740.14375 767.539063 735.76875 C 776.09375 731.39375 768.789063 734.714062 768.789063 734.714062 Z M 768.789063 734.714062 " transform="matrix(0.1,0,0,-0.1,0,81.03)"/>
</g>
</svg>
